<svg width="24" height="24" viewBox="0 0 24 24" fill="none" xmlns="http://www.w3.org/2000/svg">
<path d="M12 5.43662C14.1315 5.43662 14.3852 5.43662 15.2302 5.48357C16.0096 5.52113 16.432 5.65258 16.7137 5.75586C17.0892 5.89671 17.3521 6.07511 17.6338 6.3568C17.9155 6.63849 18.0847 6.9014 18.2349 7.27699C18.3476 7.55868 18.4791 7.98121 18.5072 8.76056C18.5448 9.60563 18.554 9.85915 18.554 11.9906C18.554 14.1221 18.5542 14.3756 18.5072 15.2207C18.4697 16 18.3382 16.4225 18.2349 16.7042C18.0941 17.0798 17.9155 17.3427 17.6338 17.6244C17.3521 17.9061 17.0892 18.0751 16.7137 18.2254C16.432 18.338 16.0096 18.4695 15.2302 18.4977C14.3852 18.5352 14.1315 18.5446 12 18.5446C9.86857 18.5446 9.6151 18.5446 8.77003 18.4977C7.99069 18.4601 7.56808 18.3286 7.28639 18.2254C6.9108 18.0845 6.64791 17.9061 6.36622 17.6244C6.08453 17.3427 5.91561 17.0798 5.76538 16.7042C5.6527 16.4225 5.52121 16 5.49304 15.2207C5.45548 14.3756 5.44605 14.1221 5.44605 11.9906C5.44605 9.85915 5.44609 9.60563 5.49304 8.76056C5.5306 7.98121 5.66209 7.55868 5.76538 7.27699C5.90622 6.9014 6.08453 6.63849 6.36622 6.3568C6.64791 6.07511 6.9108 5.9061 7.28639 5.75586C7.56808 5.64319 7.99069 5.51174 8.77003 5.48357C9.6151 5.44601 9.86857 5.43662 12 5.43662ZM12 4C9.83101 4 9.5587 3.99999 8.70424 4.04694C7.84978 4.0845 7.27717 4.22535 6.76074 4.42253C6.23492 4.62911 5.79359 4.9014 5.34289 5.34272C4.90157 5.78403 4.62929 6.23475 4.42272 6.76057C4.22554 7.26761 4.09394 7.84976 4.04699 8.70422C4.00944 9.55868 4 9.83098 4 12C4 14.169 4.00005 14.4413 4.04699 15.2958C4.08455 16.1502 4.22554 16.723 4.42272 17.2394C4.62929 17.7653 4.90157 18.2066 5.34289 18.6573C5.7842 19.0986 6.23492 19.3709 6.76074 19.5775C7.26778 19.7747 7.84978 19.9061 8.70424 19.953C9.5587 19.9906 9.83101 20 12 20C14.169 20 14.4413 20 15.2958 19.953C16.1503 19.9155 16.7231 19.7747 17.2395 19.5775C17.7654 19.3709 18.2067 19.0986 18.6574 18.6573C19.0987 18.216 19.371 17.7653 19.5776 17.2394C19.7747 16.7324 19.9061 16.1502 19.9531 15.2958C19.9906 14.4413 20 14.169 20 12C20 9.83098 20 9.55868 19.9531 8.70422C19.9155 7.84976 19.7747 7.277 19.5776 6.76057C19.371 6.23475 19.0987 5.79342 18.6574 5.34272C18.2161 4.9014 17.7654 4.62911 17.2395 4.42253C16.7325 4.22535 16.1503 4.09389 15.2958 4.04694C14.4413 4.00938 14.169 4 12 4Z" fill="black"/>
<path d="M12.0001 7.87793C9.73723 7.87793 7.89697 9.71832 7.89697 11.9812C7.89697 14.2441 9.73723 16.0845 12.0001 16.0845C14.2631 16.0845 16.1035 14.2441 16.1035 11.9812C16.1035 9.71832 14.2631 7.87793 12.0001 7.87793ZM12.0001 14.6479C10.526 14.6479 9.33362 13.4554 9.33362 11.9812C9.33362 10.507 10.526 9.31455 12.0001 9.31455C13.4743 9.31455 14.6669 10.507 14.6669 11.9812C14.6669 13.4554 13.4743 14.6479 12.0001 14.6479Z" fill="black"/>
<path d="M16.2629 8.67599C16.7919 8.67599 17.2207 8.24718 17.2207 7.71823C17.2207 7.18929 16.7919 6.7605 16.2629 6.7605C15.734 6.7605 15.3052 7.18929 15.3052 7.71823C15.3052 8.24718 15.734 8.67599 16.2629 8.67599Z" fill="black"/>
</svg>
