<svg width="24" height="24" viewBox="0 0 24 24" fill="none" xmlns="http://www.w3.org/2000/svg">
<path d="M12 4C7.57792 4 4 7.58438 4 12C4 16.4155 7.58442 19.9999 12 19.9999C16.4156 19.9999 20 16.4155 20 12C20 7.58438 16.4156 4 12 4ZM12.4156 13.1168H8.55844C8.16883 13.1168 7.85065 12.7987 7.84415 12.4091C7.84415 12.013 8.16234 11.6948 8.55195 11.6948H11.6948V6.935C11.6948 6.53889 12.013 6.22073 12.4091 6.22073C12.8052 6.22073 13.1234 6.53889 13.1234 6.935V12.3896C13.1234 12.3896 13.1234 12.3961 13.1234 12.4026C13.1234 12.7987 12.8052 13.1168 12.4156 13.1168Z" fill="#009688"/>
</svg>
