<svg width="24" height="24" viewBox="0 0 24 24" fill="none" xmlns="http://www.w3.org/2000/svg">
<path d="M11.7917 12.214C11.1852 11.6074 10.4813 10.7719 9.92052 10.0166C9.36545 9.2784 9.66301 9.06091 9.86329 8.83201C10.0636 8.60312 10.5614 8.00228 10.7503 7.77911C11.2195 7.22976 11.0078 6.98369 10.6015 6.55451C10.2753 6.20544 8.90765 4.80349 8.38119 4.30564C7.85473 3.80779 7.50566 3.99657 7.12798 4.31703C6.75031 4.63748 5.04503 6.10817 4.47851 6.56596C3.912 7.02376 3.88911 7.48157 4.19812 8.08814C5.21098 10.0681 7.26532 12.7976 9.23383 14.7661C11.1966 16.7289 13.9319 18.789 15.9119 19.8019C16.5184 20.1109 16.9762 20.0823 17.434 19.5215C17.8918 18.955 19.3568 17.244 19.6829 16.872C20.0034 16.4943 20.1922 16.1452 19.6944 15.6245C19.1965 15.098 17.7945 13.7304 17.4455 13.4042C17.0163 13.0036 16.7702 12.7863 16.2209 13.2555C16.0034 13.4443 15.4026 13.9421 15.1737 14.1424C14.9448 14.3427 14.7273 14.646 13.9891 14.0909C13.2338 13.5244 12.3983 12.8206 11.7917 12.2197V12.214Z" fill="black"/>
</svg>
