<svg width="48" height="48" viewBox="0 0 48 48" fill="none" xmlns="http://www.w3.org/2000/svg">
<path d="M40.4531 7.06133L31.003 9.26128C29.723 9.56128 28.6731 10.8812 28.6731 12.2012V36.4813C28.6731 37.8013 29.723 39.1212 31.003 39.4212L40.4531 41.6211C41.7331 41.9211 42.783 41.0913 42.783 39.7713V8.91118C42.783 7.59118 41.7331 6.76133 40.4531 7.06133ZM37.1831 25.4512L32.9231 29.7112C32.6531 29.9812 32.3031 30.1111 31.9531 30.1111C31.6031 30.1111 31.2531 29.9812 30.9831 29.7112C30.4431 29.1712 30.4431 28.3113 30.9831 27.7713L32.903 25.8511H28.7231V23.1111H32.903L30.9831 21.1912C30.4431 20.6512 30.4431 19.7913 30.9831 19.2513C31.5231 18.7113 32.3831 18.7113 32.9231 19.2513L37.1831 23.5113C37.7231 24.0513 37.7231 24.9112 37.1831 25.4512ZM28.6731 25.8511H24.4931L26.413 27.7713C26.953 28.3113 26.953 29.1712 26.413 29.7112C26.143 29.9812 25.7931 30.1111 25.4431 30.1111C25.0931 30.1111 24.7431 29.9812 24.4731 29.7112L20.2131 25.4512C19.6731 24.9112 19.6731 24.0513 20.2131 23.5113L24.4731 19.2513C25.0131 18.7113 25.873 18.7113 26.413 19.2513C26.953 19.7913 26.953 20.6512 26.413 21.1912L24.4931 23.1111H28.6731V25.8511ZM8.28304 15.9012C8.28304 13.8612 9.93311 12.2112 11.9731 12.2112C14.0131 12.2112 15.663 13.8612 15.663 15.9012C15.663 17.9412 14.0131 19.5911 11.9731 19.5911C9.93311 19.5911 8.28304 17.9412 8.28304 15.9012ZM14.893 29.8211C14.893 30.2311 14.813 30.6112 14.663 30.9612L17.7231 36.3211C18.1631 37.1011 17.8931 38.0913 17.1131 38.5413C16.8631 38.6813 16.5831 38.7513 16.3131 38.7513C15.7431 38.7513 15.203 38.4612 14.903 37.9312L11.9731 32.8013L9.04305 37.9312C8.74305 38.4612 8.19302 38.7513 7.63302 38.7513C7.36302 38.7513 7.08309 38.6813 6.83309 38.5413C6.05309 38.0913 5.78311 37.1011 6.22311 36.3211L9.28304 30.9612C9.13304 30.6112 9.05306 30.2211 9.05306 29.8211V26.1412L7.43307 27.8511C7.15307 28.1411 6.78305 28.2913 6.41305 28.2913C6.06305 28.2913 5.72308 28.1612 5.44308 27.9112C4.87308 27.3812 4.85302 26.4812 5.38302 25.9212L9.38302 21.6812C9.87302 20.7312 10.8431 20.0811 11.9731 20.0811C13.1031 20.0811 14.0831 20.7312 14.5631 21.6812L18.5631 25.9212C19.0931 26.4912 19.073 27.3812 18.503 27.9112C18.233 28.1712 17.883 28.2913 17.533 28.2913C17.163 28.2913 16.783 28.1411 16.513 27.8511L14.893 26.1412V29.8211Z" fill="white"/>
</svg>
