<svg width="48" height="48" viewBox="0 0 48 48" fill="none" xmlns="http://www.w3.org/2000/svg">
<path d="M33.1899 28.8498C33.4499 29.0098 33.7299 29.09 34.0099 29.09C34.5199 29.09 35.0099 28.8398 35.2999 28.3798C36.1999 26.9698 36.6799 25.3399 36.6799 23.6899C36.6799 22.0399 36.1999 20.3899 35.2999 18.9899C34.8399 18.2799 33.8899 18.07 33.1799 18.54C32.4699 19 32.27 19.9498 32.73 20.6598C33.31 21.5598 33.62 22.6199 33.62 23.6999C33.62 24.7799 33.3099 25.8199 32.7199 26.7399C32.2699 27.4499 32.4699 28.3998 33.1899 28.8498Z" fill="white"/>
<path d="M37.41 32.2101C37.66 32.3601 37.93 32.4298 38.21 32.4298C38.73 32.4298 39.2299 32.1699 39.5199 31.6999C40.9899 29.2899 41.7699 26.5198 41.7699 23.6798C41.7699 20.8398 40.9899 18.0798 39.5199 15.6598C39.0799 14.9398 38.14 14.7098 37.41 15.1498C36.69 15.5898 36.4599 16.5299 36.8999 17.2599C38.0799 19.1899 38.7 21.4098 38.7 23.6798C38.7 25.9498 38.0799 28.1698 36.8999 30.0998C36.4599 30.8198 36.69 31.7601 37.41 32.2101Z" fill="white"/>
<path d="M11.6899 15.1799H6V31.3899H11.6899V15.1799Z" fill="white"/>
<path d="M13.5099 31.3899L29.4099 39.3801V8L13.5099 15.1799V31.3899Z" fill="white"/>
</svg>
