<svg width="48" height="48" viewBox="0 0 48 48" fill="none" xmlns="http://www.w3.org/2000/svg">
<path d="M31.9988 22.3899C34.4288 19.7299 36.7988 16.8399 36.7988 12.9299C36.7988 9.68993 34.0688 7 30.5088 7C27.5288 7 24.8688 8.48983 23.7888 11.5798H23.7288C22.6588 8.47983 20.0287 7 17.0787 7C13.5787 7 10.7488 9.62993 10.7488 12.9299C10.7488 16.8399 13.1188 19.7299 15.5488 22.3899C17.8888 24.9299 22.5188 29.37 23.7288 30.45H23.7888C24.9888 29.37 29.6588 24.9299 31.9988 22.3899Z" fill="white"/>
<path d="M20.7188 32.3499V32.3198L12.5388 29.48C11.6588 29.16 10.6788 29.61 10.3588 30.49C10.0388 31.37 10.4888 32.3499 11.3688 32.6699L16.6488 34.4299L16.2888 35.4199L11.0188 33.6299C9.91881 33.2199 9.23878 32.1898 9.23878 31.0798C9.23878 30.7698 9.28883 30.4499 9.40883 30.1499C9.76883 29.1799 10.6187 28.5299 11.5787 28.3899L9.69874 20.48C9.41874 19.2 8.14879 18.3799 6.86879 18.6699C5.57879 18.9499 4.76885 20.22 5.05885 21.5L8.20875 34.6399C8.39875 35.5299 9.08876 36.8999 9.96876 37.1199L14.6688 39.28V41.94H22.3187V34.5698C22.3187 33.5498 21.6788 32.6699 20.7288 32.3399L20.7188 32.3499Z" fill="white"/>
<path d="M40.6888 18.6698C39.4088 18.3898 38.1388 19.1999 37.8588 20.4799L35.9788 28.3898C36.9388 28.5198 37.7988 29.1698 38.1488 30.1398C38.2588 30.4498 38.3187 30.7597 38.3187 31.0797C38.3187 32.1897 37.6388 33.2298 36.5388 33.6298L31.2688 35.4198L30.9088 34.4298L36.1888 32.6698C37.0688 32.3498 37.5187 31.3699 37.1987 30.4899C36.8787 29.6099 35.8988 29.1599 35.0188 29.4799L26.8387 32.3197V32.3498C25.8987 32.6798 25.2488 33.5697 25.2488 34.5797V41.9499H32.8988V39.2897L37.5988 37.1298C38.4788 36.9098 39.1588 35.5398 39.3588 34.6498L42.5088 21.5099C42.7888 20.2299 41.9787 18.9598 40.6987 18.6798L40.6888 18.6698Z" fill="white"/>
</svg>
