<svg width="48" height="48" viewBox="0 0 48 48" fill="none" xmlns="http://www.w3.org/2000/svg">
<path d="M32 11.9199C32.6 11.9199 33.09 11.4296 33.09 10.8296C33.09 10.2296 32.6 9.73975 32 9.73975C31.4 9.73975 30.91 10.2296 30.91 10.8296C30.91 11.4296 31.4 11.9199 32 11.9199ZM35.6899 11.9199C36.2899 11.9199 36.78 11.4296 36.78 10.8296C36.78 10.2296 36.2899 9.73975 35.6899 9.73975C35.0899 9.73975 34.6 10.2296 34.6 10.8296C34.6 11.4296 35.0899 11.9199 35.6899 11.9199ZM39.38 11.9199C39.98 11.9199 40.47 11.4296 40.47 10.8296C40.47 10.2296 39.98 9.73975 39.38 9.73975C38.78 9.73975 38.29 10.2296 38.29 10.8296C38.29 11.4296 38.78 11.9199 39.38 11.9199ZM3 36.5596C3 37.5296 3.79001 38.3198 4.76001 38.3198H25.53C25.92 37.0598 26.48 35.8696 27.2 34.8096H4.76001C3.79001 34.8096 3 35.5998 3 36.5698V36.5596ZM25.63 16.6797H29.45C31.03 17.9997 33.15 18.7998 35.47 18.7998C37.79 18.7998 40.1 17.9298 41.7 16.5098C43.2999 15.0898 44.3199 13.0999 44.3199 10.8999C44.3199 8.6999 43.31 6.70955 41.7 5.28955C40.09 3.86955 37.89 3 35.47 3C33.05 3 30.84 3.86955 29.24 5.28955C27.64 6.70955 26.62 8.6999 26.62 10.8999C26.62 11.8799 26.8299 12.8097 27.1899 13.6797L25.23 15.7598C25.08 15.9198 25.04 16.1496 25.13 16.3496C25.22 16.5496 25.41 16.6797 25.63 16.6797ZM28.23 14.1699C28.39 14.0099 28.42 13.7596 28.33 13.5596C27.93 12.7396 27.72 11.8497 27.72 10.9097C27.72 9.04967 28.57 7.35963 29.97 6.11963C31.37 4.87963 33.32 4.09961 35.48 4.09961C37.64 4.09961 39.59 4.87963 40.99 6.11963C42.39 7.35963 43.24 9.04967 43.24 10.9097C43.24 12.7697 42.39 14.4597 40.99 15.6997C39.59 16.9397 37.64 17.7197 35.48 17.7197C33.32 17.7197 31.4 16.95 30.01 15.73C29.91 15.64 29.78 15.5996 29.65 15.5996H26.91L28.25 14.1797L28.23 14.1699ZM42.6 35.2998C41.74 34.2498 40.6599 33.4096 39.4399 32.8496C41.2099 31.7496 42.39 29.7998 42.39 27.5698C42.39 24.1298 39.6 21.3398 36.16 21.3398C32.72 21.3398 29.9299 24.1298 29.9299 27.5698C29.9299 29.7998 31.11 31.7596 32.88 32.8496C31.67 33.4096 30.59 34.2598 29.73 35.2998C28.14 37.2298 27.2 39.8096 27.2 42.6396C27.2 43.0396 27.36 43.43 27.64 43.71C27.92 43.99 28.31 44.1499 28.71 44.1499H43.61C44.01 44.1499 44.3999 43.99 44.6799 43.71C44.9599 43.43 45.12 43.0396 45.12 42.6396C45.12 39.8096 44.18 37.2198 42.59 35.2998H42.6ZM8.37 32.8398H22C22.36 32.8398 22.72 32.6899 22.98 32.4399C23.24 32.1799 23.39 31.82 23.39 31.46C23.39 28.87 22.53 26.51 21.08 24.75C20.29 23.79 19.2999 23.0198 18.1899 22.5098C19.8099 21.5098 20.89 19.7197 20.89 17.6797C20.89 14.5297 18.3399 11.98 15.1899 11.98C12.0399 11.98 9.48999 14.5297 9.48999 17.6797C9.48999 19.7197 10.5699 21.5098 12.1899 22.5098C11.0799 23.0198 10.09 23.8 9.30005 24.75C7.85005 26.51 6.98999 28.88 6.98999 31.46C6.98999 31.83 7.14002 32.1799 7.40002 32.4399C7.66002 32.6999 8.01 32.8398 8.38 32.8398H8.37Z" fill="white"/>
</svg>
