<svg width="48" height="48" viewBox="0 0 48 48" fill="none" xmlns="http://www.w3.org/2000/svg">
<path d="M21.59 18.6104L15.96 16.0801C15.72 15.9501 15.4501 15.8604 15.1801 15.8604C14.9001 15.8604 14.61 15.9403 14.36 16.0903C13.89 16.3803 13.61 16.8902 13.61 17.4302C13.61 17.4902 13.61 17.5601 13.62 17.6201L13.9301 21.21C12.7701 21.95 11.86 22.8304 11.21 23.8604C10.54 24.9304 10.13 26.1403 9.85999 27.5103L7.93005 28.71C7.35005 29.07 7 29.7004 7 30.3804L8.02002 34.29C8.02002 34.81 8.22998 35.3102 8.59998 35.6802C8.96998 36.0502 9.46999 36.2503 9.98999 36.2603H12.0601C12.8201 37.1303 13.73 37.8903 14.76 38.5303L14.01 40.3501C13.91 40.5901 13.86 40.8501 13.86 41.1001C13.86 41.4801 13.9699 41.8599 14.1899 42.1899C14.5499 42.7399 15.17 43.0601 15.83 43.0601H18.0699C18.4699 43.0601 18.87 42.94 19.2 42.71L21.88 40.8301C22.7 40.9201 23.55 40.98 24.41 40.98C25.38 40.98 26.32 40.91 27.24 40.79L29.98 42.71C30.31 42.94 30.7 43.0703 31.11 43.0703H33.35C34.01 43.0703 34.62 42.7402 34.98 42.2002C35.2 41.8702 35.3101 41.4904 35.3101 41.1104C35.3101 40.8504 35.26 40.6004 35.16 40.3604L34.33 38.3604C35.7 37.4704 36.87 36.3603 37.7 35.0303C38.66 33.5103 39.1899 31.71 39.1899 29.71C39.1899 28.16 38.86 26.74 38.28 25.48L38.26 25.4302L36.9 23.3403C37.21 23.2603 37.5601 23.1502 37.9301 22.9902C38.5001 22.7402 39.12 22.36 39.64 21.79C40.17 21.22 40.6 20.45 40.79 19.5C40.87 19.07 40.6 18.6601 40.17 18.5801C39.74 18.4901 39.33 18.7702 39.25 19.2002C39.14 19.7202 38.96 20.1202 38.72 20.4502C38.62 19.2902 37.65 18.3701 36.46 18.3701C35.2 18.3701 34.1801 19.3899 34.1801 20.6499C34.1801 20.7699 34.2 20.89 34.21 21C32.39 19.84 30.18 19.0702 27.77 18.7002C25.46 18.4102 23.14 18.4099 21.59 18.6499V18.6104ZM16.42 29.0801C15.66 29.0801 15.04 28.4602 15.04 27.7002C15.04 26.9402 15.66 26.3203 16.42 26.3203C17.18 26.3203 17.8 26.9402 17.8 27.7002C17.8 28.4602 17.18 29.0801 16.42 29.0801ZM28.42 21.9702C28.35 22.1802 28.1301 22.29 27.9301 22.23C26.6501 21.83 25.48 21.6899 24.49 21.6899C22.63 21.6899 21.39 22.16 21.27 22.21C21.07 22.3 20.84 22.21 20.76 22C20.68 21.8 20.76 21.5702 20.97 21.4902C21 21.4802 22.38 20.8999 24.51 20.8999C25.57 20.8999 26.8299 21.04 28.1899 21.48C28.3999 21.55 28.51 21.7702 28.45 21.9702H28.42ZM36.45 21.3203C36.06 21.3203 35.75 21.0001 35.75 20.6201C35.75 20.2301 36.07 19.9199 36.45 19.9199C36.84 19.9199 37.15 20.2401 37.15 20.6201C37.15 21.0101 36.83 21.3203 36.45 21.3203Z" fill="white"/>
<path d="M24.71 5C21.36 5 18.63 7.72008 18.63 11.0801C18.63 14.4401 21.36 17.1499 24.71 17.1499C28.06 17.1499 30.79 14.4301 30.79 11.0801C30.79 7.73008 28.06 5 24.71 5ZM27.25 10.8604V11.6802H25.49V12.3701H27.25V13.1899H25.49V14.8901H23.77V13.1899H22.01V12.3701H23.77V11.6802H22.01V10.8604H23.3101L21.85 7.83008H23.48L24.6899 10.6602L25.9301 7.83008H27.51L25.92 10.8604H27.24H27.25Z" fill="white"/>
</svg>
