<svg width="48" height="48" viewBox="0 0 48 48" fill="none" xmlns="http://www.w3.org/2000/svg">
<path d="M8.84998 27.48C8.84998 28.39 9.59 29.1301 10.5 29.1301C11.41 29.1301 12.1499 28.39 12.1499 27.48C12.1499 26.57 11.41 25.8301 10.5 25.8301C9.59 25.8301 8.84998 26.57 8.84998 27.48Z" fill="white"/>
<path d="M14.0599 27.48C14.0599 28.39 14.8 29.1301 15.71 29.1301C16.62 29.1301 17.36 28.39 17.36 27.48C17.36 26.57 16.62 25.8301 15.71 25.8301C14.8 25.8301 14.0599 26.57 14.0599 27.48Z" fill="white"/>
<path d="M20.9099 29.1301C21.8212 29.1301 22.5599 28.3913 22.5599 27.48C22.5599 26.5687 21.8212 25.8301 20.9099 25.8301C19.9986 25.8301 19.26 26.5687 19.26 27.48C19.26 28.3913 19.9986 29.1301 20.9099 29.1301Z" fill="white"/>
<path d="M15.71 37.0598C15.14 37.0598 14.55 37.0199 13.84 36.9299L13.21 36.8499L12.6799 37.2L10.4099 38.7L10.63 37.6799L10.9199 36.3298L9.66992 35.7502C5.99992 34.0502 3.72998 30.9301 3.72998 27.6101C3.72998 22.4001 9.10997 18.1599 15.72 18.1599C16.64 18.1599 17.53 18.2499 18.39 18.4099C18.34 17.9999 18.3099 17.5899 18.3099 17.1699C18.3099 16.9899 18.33 16.8199 18.34 16.6499C17.49 16.5199 16.61 16.4399 15.71 16.4399C8.13996 16.4399 2 21.4401 2 27.6101C2 31.7701 4.79994 35.4001 8.93994 37.3201L7.83997 42.47L13.63 38.6501C14.31 38.7301 15 38.7898 15.71 38.7898C22.66 38.7898 28.3799 34.5801 29.2899 29.1201C28.7199 28.9901 28.17 28.8399 27.63 28.6599C26.97 33.3799 21.88 37.0701 15.72 37.0701L15.71 37.0598Z" fill="white"/>
<path d="M46.95 17.1699C46.95 10.9999 40.81 6 33.24 6C25.67 6 19.5299 10.9999 19.5299 17.1699C19.5299 23.3399 25.67 28.3401 33.24 28.3401C33.95 28.3401 34.6399 28.28 35.3199 28.2L41.11 32.02L40.01 26.8701C44.15 24.9501 46.95 21.3199 46.95 17.1599V17.1699ZM28.0299 18.6899C27.1199 18.6899 26.38 17.95 26.38 17.04C26.38 16.13 27.1199 15.3899 28.0299 15.3899C28.9399 15.3899 29.6799 16.13 29.6799 17.04C29.6799 17.95 28.9399 18.6899 28.0299 18.6899ZM33.24 18.6899C32.33 18.6899 31.59 17.95 31.59 17.04C31.59 16.13 32.33 15.3899 33.24 15.3899C34.15 15.3899 34.89 16.13 34.89 17.04C34.89 17.95 34.15 18.6899 33.24 18.6899ZM38.45 18.6899C37.54 18.6899 36.7999 17.95 36.7999 17.04C36.7999 16.13 37.54 15.3899 38.45 15.3899C39.36 15.3899 40.1 16.13 40.1 17.04C40.1 17.95 39.36 18.6899 38.45 18.6899Z" fill="white"/>
</svg>
