<svg width="48" height="48" viewBox="0 0 48 48" fill="none" xmlns="http://www.w3.org/2000/svg">
<path d="M30.55 36.04H34.0601C34.2701 36.04 34.48 35.9498 34.63 35.7998C34.78 35.6498 34.87 35.44 34.87 35.23V31.73C34.87 31.52 34.78 31.3097 34.63 31.1597C34.48 31.0097 34.2701 30.9199 34.0601 30.9199H30.55C30.34 30.9199 30.13 31.0097 29.98 31.1597C29.83 31.3097 29.74 31.52 29.74 31.73V35.23C29.74 35.44 29.83 35.6498 29.98 35.7998C30.13 35.9498 30.34 36.04 30.55 36.04Z" fill="white"/>
<path d="M30.55 27.5801H34.0601C34.2701 27.5801 34.48 27.4898 34.63 27.3398C34.78 27.1898 34.87 26.98 34.87 26.77V23.27C34.87 23.06 34.78 22.8497 34.63 22.6997C34.48 22.5497 34.2701 22.46 34.0601 22.46H30.55C30.34 22.46 30.13 22.5497 29.98 22.6997C29.83 22.8497 29.74 23.06 29.74 23.27V26.77C29.74 26.98 29.83 27.1898 29.98 27.3398C30.13 27.4898 30.34 27.5801 30.55 27.5801Z" fill="white"/>
<path d="M22.4401 27.5801H25.9501C26.1601 27.5801 26.37 27.4898 26.52 27.3398C26.67 27.1898 26.76 26.98 26.76 26.77V23.27C26.76 23.06 26.67 22.8497 26.52 22.6997C26.37 22.5497 26.1601 22.46 25.9501 22.46H22.4401C22.2301 22.46 22.02 22.5497 21.87 22.6997C21.72 22.8497 21.63 23.06 21.63 23.27V26.77C21.63 26.98 21.72 27.1898 21.87 27.3398C22.02 27.4898 22.2301 27.5801 22.4401 27.5801Z" fill="white"/>
<path d="M14.3301 36.04H17.8301C18.0401 36.04 18.25 35.9498 18.4 35.7998C18.55 35.6498 18.64 35.44 18.64 35.23V31.73C18.64 31.52 18.55 31.3097 18.4 31.1597C18.25 31.0097 18.0401 30.9199 17.8301 30.9199H14.3301C14.1201 30.9199 13.91 31.0097 13.76 31.1597C13.61 31.3097 13.52 31.52 13.52 31.73V35.23C13.52 35.44 13.61 35.6498 13.76 35.7998C13.91 35.9498 14.1201 36.04 14.3301 36.04Z" fill="white"/>
<path d="M40.05 11.3599C39.84 11.1499 39.56 11.04 39.27 11.04H35.05V12.6797C35.05 14.6197 33.48 16.1899 31.54 16.1899C29.6 16.1899 28.03 14.6197 28.03 12.6797V11.04H20.3301V12.6797C20.3301 14.6197 18.7601 16.1899 16.8201 16.1899C14.8801 16.1899 13.3101 14.6197 13.3101 12.6797V11.04H9.09998C8.80998 11.04 8.53007 11.1599 8.32007 11.3599C8.11007 11.5699 8 11.8496 8 12.1396V38.98C8 39.27 8.12007 39.5498 8.32007 39.7598C8.53007 39.9598 8.80998 40.0801 9.09998 40.0801H39.25C39.54 40.0801 39.82 39.9598 40.03 39.7598C40.24 39.5498 40.35 39.27 40.35 38.98V12.1396C40.35 11.8496 40.23 11.5699 40.03 11.3599H40.05ZM38.17 37.8799H10.23V20.5098H38.17V37.8799Z" fill="white"/>
<path d="M14.3301 27.5801H17.8301C18.0401 27.5801 18.25 27.4898 18.4 27.3398C18.55 27.1898 18.64 26.98 18.64 26.77V23.27C18.64 23.06 18.55 22.8497 18.4 22.6997C18.25 22.5497 18.0401 22.46 17.8301 22.46H14.3301C14.1201 22.46 13.91 22.5497 13.76 22.6997C13.61 22.8497 13.52 23.06 13.52 23.27V26.77C13.52 26.98 13.61 27.1898 13.76 27.3398C13.91 27.4898 14.1201 27.5801 14.3301 27.5801Z" fill="white"/>
<path d="M22.4401 36.04H25.9501C26.1601 36.04 26.37 35.9498 26.52 35.7998C26.67 35.6498 26.76 35.44 26.76 35.23V31.73C26.76 31.52 26.67 31.3097 26.52 31.1597C26.37 31.0097 26.1601 30.9199 25.9501 30.9199H22.4401C22.2301 30.9199 22.02 31.0097 21.87 31.1597C21.72 31.3097 21.63 31.52 21.63 31.73V35.23C21.63 35.44 21.72 35.6498 21.87 35.7998C22.02 35.9498 22.2301 36.04 22.4401 36.04Z" fill="white"/>
<path d="M16.8401 14.5298C17.8601 14.5298 18.6901 13.6997 18.6901 12.6797V8.84961C18.6901 7.82961 17.8601 7 16.8401 7C15.8201 7 14.99 7.82961 14.99 8.84961V12.6797C14.99 13.6997 15.8201 14.5298 16.8401 14.5298Z" fill="white"/>
<path d="M31.55 14.5298C32.57 14.5298 33.4 13.6997 33.4 12.6797V8.84961C33.4 7.82961 32.57 7 31.55 7C30.53 7 29.7001 7.82961 29.7001 8.84961V12.6797C29.7001 13.6997 30.53 14.5298 31.55 14.5298Z" fill="white"/>
</svg>
