<svg width="48" height="48" viewBox="0 0 48 48" fill="none" xmlns="http://www.w3.org/2000/svg">
<path d="M26.615 28.9199C33.745 28.9199 39.505 23.11 39.505 15.96C39.505 8.80996 33.735 3 26.615 3C19.485 3 13.725 8.80996 13.725 15.96C13.725 23.11 19.495 28.9199 26.615 28.9199ZM19.255 8.54004C21.145 6.64004 23.745 5.47021 26.615 5.47021C29.485 5.47021 32.085 6.64004 33.975 8.54004C35.865 10.44 37.025 13.05 37.025 15.96C37.025 18.87 35.855 21.4799 33.975 23.3799C32.085 25.2799 29.485 26.4502 26.615 26.4502C23.735 26.4502 21.145 25.2799 19.255 23.3799C17.365 21.4799 16.205 18.86 16.205 15.96C16.205 13.06 17.375 10.44 19.255 8.54004ZM26.615 17.54C27.175 17.54 27.655 17.2498 27.935 16.8198H31.975C32.435 16.8198 32.8049 16.4502 32.8049 15.9902C32.8049 15.5302 32.435 15.1602 31.975 15.1602H27.975C27.845 14.9302 27.665 14.7399 27.435 14.6099V8.1001C27.435 7.6401 27.065 7.27002 26.605 7.27002C26.145 7.27002 25.775 7.6401 25.775 8.1001V14.6099C25.325 14.8899 25.015 15.3802 25.015 15.9502C25.015 16.8202 25.725 17.5298 26.595 17.5298L26.615 17.54ZM8.86501 37.2798C8.66501 37.0698 8.38499 36.9399 8.09499 36.9399C7.80499 36.9399 7.52497 37.0498 7.32497 37.2598L6.29506 38.3301C5.90506 38.7301 5.90504 39.3698 6.27504 39.7798L11.485 45.4399C11.685 45.6499 11.965 45.7798 12.245 45.7798C12.535 45.7798 12.815 45.67 13.015 45.46L14.0451 44.3901C14.4351 43.9901 14.435 43.3499 14.065 42.9399L8.855 37.2798H8.86501ZM41.475 29.27C40.645 27.98 38.935 27.6002 37.645 28.4302L29.575 33.3999C30.255 34.3099 30.4349 35.5401 29.9249 36.6401C29.7649 36.9801 29.5451 37.2898 29.2951 37.5498C28.3851 38.4598 26.965 38.7599 25.715 38.1899L19.895 35.3198L20.405 34.21L26.215 37.1099C27.205 37.5699 28.385 37.1399 28.845 36.1499C29.305 35.1599 28.875 33.98 27.885 33.52L18.8049 29.1201L18.785 29.1499C17.735 28.6499 16.475 28.8502 15.635 29.6802L9.56496 35.75L15.865 42.0498L18.065 39.8599L23.725 41.9502C24.635 42.5002 26.325 41.9299 27.225 41.3599L40.645 33.1201C41.935 32.3001 42.315 30.58 41.485 29.29L41.475 29.27Z" fill="white"/>
</svg>
