<svg width="48" height="48" viewBox="0 0 48 48" fill="none" xmlns="http://www.w3.org/2000/svg">
<path d="M43.2 13.4102C42.84 11.8902 41.06 9 36.84 9C34.16 9 32.2 10.9001 31.24 12.0801H5.42004C4.64004 12.0801 4 12.71 4 13.5V32.4399C4 33.2199 4.63004 33.8604 5.42004 33.8604H21.3099V37.02C21.3099 37.8 21.94 38.4399 22.73 38.4399H31.79C34.62 38.4399 43.24 38.4399 43.24 32.4399V13.7402C43.24 13.6302 43.2299 13.5204 43.2 13.4204V13.4102ZM36.84 11.8301C39.47 11.8301 40.23 13.4502 40.4 13.9302V28.5703C39.48 28.0503 38.31 27.7002 36.84 27.7002C35.37 27.7002 34.15 28.1803 33.21 28.8003V14.1602C33.71 13.4702 35.1 11.8301 36.84 11.8301ZM6.83997 14.9102H30.38V31.0103H6.83997V14.9102ZM31.79 35.5903H24.15V33.8403H31.79C31.91 33.8403 32.03 33.82 32.14 33.79C32.17 33.79 32.2 33.7703 32.22 33.7603C32.31 33.7303 32.4 33.6901 32.48 33.6401C32.5 33.6301 32.52 33.6204 32.55 33.6104C32.65 33.5504 32.7399 33.4701 32.8099 33.3901C32.8299 33.3701 32.84 33.3501 32.86 33.3301C32.93 33.2501 32.98 33.1701 33.03 33.0801C33.03 33.0601 33.0499 33.06 33.0599 33.04C33.0699 33.01 34.3 30.5303 36.83 30.5303C39.36 30.5303 40.18 32.0603 40.38 32.5903C40.23 34.5803 37.34 35.5903 31.78 35.5903H31.79Z" fill="white"/>
<path d="M26.73 17.6001H10.12V19.77H26.73V17.6001Z" fill="white"/>
<path d="M26.73 21.8804H10.12V24.0503H26.73V21.8804Z" fill="white"/>
<path d="M26.73 26.1504H10.12V28.3203H26.73V26.1504Z" fill="white"/>
</svg>
