<svg width="48" height="48" viewBox="0 0 48 48" fill="none" xmlns="http://www.w3.org/2000/svg">
<path d="M38.23 23.5166H32.4C31.6489 23.5166 31.04 24.1254 31.04 24.8765V41.3267C31.04 42.0778 31.6489 42.6865 32.4 42.6865H38.23C38.9811 42.6865 39.5901 42.0778 39.5901 41.3267V24.8765C39.5901 24.1254 38.9811 23.5166 38.23 23.5166Z" fill="white"/>
<path d="M27.2101 27.1064H21.38C20.6289 27.1064 20.02 27.7152 20.02 28.4663V41.3164C20.02 42.0675 20.6289 42.6768 21.38 42.6768H27.2101C27.9612 42.6768 28.5701 42.0675 28.5701 41.3164V28.4663C28.5701 27.7152 27.9612 27.1064 27.2101 27.1064Z" fill="white"/>
<path d="M16.1901 30.7065H10.36C9.60888 30.7065 9 31.3153 9 32.0664V41.3267C9 42.0778 9.60888 42.6865 10.36 42.6865H16.1901C16.9412 42.6865 17.55 42.0778 17.55 41.3267V32.0664C17.55 31.3153 16.9412 30.7065 16.1901 30.7065Z" fill="white"/>
<path d="M37.99 5.08661L25.7201 8.89666C24.5901 9.24666 24.3 10.7265 25.23 11.4665L35.6801 19.9269C36.5701 20.6469 37.9201 20.1265 38.0801 18.9865L39.9 6.70672C40.06 5.62672 39.03 4.74659 37.99 5.06659V5.08661Z" fill="white"/>
<path d="M32.73 17.2866C27.59 21.9466 18.59 26.0365 11.38 26.1265C9.38999 26.1565 9.30005 24.6266 11.19 24.3066C16.69 23.3866 24.15 18.9264 28.4 13.7964L32.74 17.2866H32.73Z" fill="white"/>
</svg>
