<svg width="48" height="48" viewBox="0 0 48 48" fill="none" xmlns="http://www.w3.org/2000/svg">
<path d="M26.52 12.51V10.7402C26.52 9.45023 25.4701 8.40015 24.1801 8.40015H23.65C23.31 7.02015 22.08 6 20.6 6C19.12 6 17.89 7.02015 17.55 8.40015H16.9C15.61 8.40015 14.5599 9.45023 14.5599 10.7402V12.51C14.5599 13.8 15.61 14.8501 16.9 14.8501H24.17C25.46 14.8501 26.51 13.8 26.51 12.51H26.52ZM21.9 8.40015H19.3C19.56 7.95015 20.04 7.64014 20.6 7.64014C21.16 7.64014 21.64 7.95015 21.9 8.40015ZM8 14.02V38.76C8 40.05 9.04997 41.1001 10.34 41.1001H30.73C32.02 41.1001 33.0699 40.05 33.0699 38.76V14.02C33.0699 12.73 32.84 11.6802 31.55 11.6802H27.74V12.51C27.74 14.48 26.14 16.0801 24.17 16.0801H16.9C14.93 16.0801 13.33 14.48 13.33 12.51V11.6802H10.34C9.04997 11.6802 8 12.73 8 14.02ZM11.33 34.3401C11.33 33.9601 11.63 33.6602 12.01 33.6602H29.08C29.46 33.6602 29.76 33.9601 29.76 34.3401C29.76 34.7201 29.46 35.02 29.08 35.02H12.01C11.64 35.02 11.33 34.7101 11.33 34.3401ZM11.33 30.6401C11.33 30.2601 11.63 29.9602 12.01 29.9602H29.08C29.46 29.9602 29.76 30.2701 29.76 30.6401C29.76 31.0101 29.46 31.3201 29.08 31.3201H12.01C11.64 31.3201 11.33 31.0201 11.33 30.6401ZM11.33 26.9402C11.33 26.5602 11.63 26.26 12.01 26.26H29.08C29.46 26.26 29.76 26.5602 29.76 26.9402C29.76 27.3202 29.46 27.6201 29.08 27.6201H12.01C11.64 27.6201 11.33 27.3102 11.33 26.9402ZM11.33 23.2302C11.33 22.8602 11.63 22.55 12.01 22.55H29.08C29.46 22.55 29.76 22.8602 29.76 23.2302C29.76 23.6002 29.46 23.9102 29.08 23.9102H12.01C11.64 23.9102 11.33 23.6102 11.33 23.2302ZM11.33 19.53C11.33 19.15 11.63 18.8501 12.01 18.8501H29.08C29.46 18.8501 29.76 19.15 29.76 19.53C29.76 19.91 29.46 20.2102 29.08 20.2102H12.01C11.64 20.2102 11.33 19.9 11.33 19.53ZM35.17 27.3V40.1902C35.17 40.3902 35.33 40.5601 35.54 40.5601H39.48C39.58 40.5601 39.67 40.5202 39.74 40.4502C39.81 40.3802 39.85 40.2902 39.85 40.1902V27.3L39.8199 27.1702V27.1401L39.79 27.1001L37.8199 23.9502C37.7499 23.8402 37.63 23.78 37.51 23.78C37.38 23.78 37.26 23.8402 37.2 23.9502L35.23 27.1101L35.21 27.1501V27.1802L35.17 27.3Z" fill="white"/>
</svg>
